<svg width="25" height="25" viewBox="0 0 29 29" fill="none" xmlns="http://www.w3.org/2000/svg">
<path d="M3.87568 16.1503C7.12068 14.4106 11.1616 15.6309 12.9013 18.8759C14.641 22.1209 13.4207 26.1618 10.1757 27.9015C6.93067 29.6412 2.88978 28.4209 1.15009 25.1759C-0.589604 21.9309 0.630684 17.89 3.87568 16.1503Z" fill="#FED2A8"/>
<path d="M3.87568 1.15055C7.12068 -0.589142 11.1616 0.631146 12.9013 3.87614C14.641 7.12114 13.4207 11.162 10.1757 12.9017C6.93067 14.6414 2.88978 13.4211 1.15009 10.1761C-0.589604 6.93114 0.630684 2.89025 3.87568 1.15055Z" fill="#E9FBC9"/>
<path d="M18.8757 16.1502C22.1207 14.4105 26.1616 15.6308 27.9013 18.8758C29.641 22.1208 28.4207 26.1617 25.1757 27.9014C21.9307 29.6411 17.8898 28.4208 16.1501 25.1758C14.4104 21.9308 15.6307 17.8899 18.8757 16.1502Z" fill="#F9B8C4"/>
<path d="M18.8757 1.15033C22.1207 -0.58936 26.1616 0.630928 27.9013 3.87592C29.641 7.12092 28.4207 11.1618 25.1757 12.9015C21.9307 14.6412 17.8898 13.4209 16.1501 10.1759C14.4104 6.93092 15.6307 2.89003 18.8757 1.15033Z" fill="#D1DAFD"/>
</svg>
